<?xml version="1.0" standalone="no"?>
<!DOCTYPE svg PUBLIC "-//W3C//DTD SVG 20010904//EN"
 "http://www.w3.org/TR/2001/REC-SVG-20010904/DTD/svg10.dtd">
<svg version="1.0" xmlns="http://www.w3.org/2000/svg"
 width="300.000000pt" height="300.000000pt" viewBox="0 0 300.000000 300.000000"
 preserveAspectRatio="xMidYMid meet">
<metadata>
Created by potrace 1.11, written by Peter Selinger 2001-2013
</metadata>
<g transform="translate(0.000000,300.000000) scale(0.100000,-0.100000)"
fill="#000000" stroke="none">
<path d="M0 1500 l0 -1500 1500 0 1500 0 0 1500 0 1500 -1500 0 -1500 0 0
-1500z m578 298 l2 -218 -45 0 -45 0 0 221 0 220 43 -3 42 -3 3 -217z m142
182 l0 -40 -40 0 -40 0 0 40 0 40 40 0 40 0 0 -40z m160 -77 l0 -117 58 57
c52 51 62 57 100 57 23 0 42 -4 42 -8 0 -4 -24 -32 -54 -61 l-55 -54 38 -56
c21 -31 50 -75 65 -98 l26 -43 -53 0 -53 0 -38 65 c-21 36 -41 65 -45 65 -19
0 -31 -29 -31 -77 l0 -53 -45 0 -45 0 0 220 0 220 45 0 45 0 0 -117z m1210
110 c-1 -5 -7 -37 -15 -73 -7 -36 -12 -66 -10 -68 2 -2 14 3 27 12 31 22 110
21 137 -2 29 -22 29 -67 2 -196 -12 -54 -21 -100 -21 -102 0 -2 -21 -4 -46 -4
-33 0 -45 4 -41 13 13 35 39 207 34 221 -4 10 -18 16 -37 16 -48 0 -74 -36
-94 -132 -26 -125 -22 -118 -67 -118 -27 0 -39 4 -39 14 0 20 80 408 86 418 6
10 84 11 84 1z m-1803 -63 l-5 -60 28 0 c26 0 28 3 36 58 8 53 11 57 38 60
l29 4 -7 -61 c-7 -57 -6 -61 14 -61 16 0 20 -6 20 -30 0 -25 -4 -30 -24 -30
-16 0 -26 -7 -30 -22 -11 -42 -7 -58 14 -58 15 0 20 -7 20 -25 0 -20 -5 -25
-25 -25 -22 0 -25 -5 -31 -60 -6 -58 -7 -60 -37 -60 l-30 0 7 60 7 60 -29 0
c-28 0 -30 -2 -36 -60 -7 -58 -8 -60 -37 -60 l-30 0 7 60 c7 60 7 60 -20 60
-21 0 -26 5 -26 25 0 21 5 25 29 25 21 0 30 6 35 23 12 44 7 57 -20 57 -22 0
-25 4 -22 28 2 21 9 28 30 30 23 3 28 9 33 40 13 80 14 82 42 82 26 0 26 -1
20 -60z m2517 -5 c-6 -44 -6 -45 21 -45 23 0 26 -4 23 -27 -2 -23 -9 -29 -34
-31 -30 -3 -32 -6 -48 -78 -23 -108 -22 -122 12 -126 27 -3 28 -5 20 -37 -9
-33 -10 -33 -58 -29 -27 3 -56 11 -65 18 -19 16 -19 65 0 150 20 92 19 100
-10 100 -14 0 -25 5 -25 11 0 25 22 49 45 49 20 0 25 6 31 38 9 51 10 52 55
52 l40 0 -7 -45z m-2084 -205 l0 -160 -40 0 -40 0 0 160 0 160 40 0 40 0 0
-160z m646 129 c33 -30 54 -78 54 -124 l0 -35 -110 0 c-100 0 -110 -2 -110
-18 0 -20 24 -45 53 -55 21 -8 87 17 87 32 0 6 16 11 35 11 43 0 47 -24 10
-64 -45 -49 -131 -61 -195 -28 -43 23 -80 90 -80 148 0 55 37 122 80 146 50
27 140 21 176 -13z m169 19 c2 -7 8 -58 12 -113 l8 -100 47 110 46 110 44 0
43 0 5 -97 c3 -53 8 -99 11 -102 3 -3 26 40 52 97 l46 102 40 0 c23 0 42 -4
42 -8 1 -5 -33 -76 -76 -158 l-77 -150 -46 3 -47 3 -5 105 -5 105 -23 -50
c-13 -27 -35 -76 -49 -107 l-26 -58 -47 0 -46 0 -16 153 c-9 83 -14 155 -11
160 7 12 73 8 78 -5z m1025 -3 c43 -22 46 -54 20 -187 l-24 -118 -37 0 c-21 0
-39 5 -41 12 -3 8 -11 7 -28 -5 -45 -32 -148 -14 -164 28 -19 50 9 116 57 131
12 4 53 12 91 18 45 7 73 17 79 28 27 42 -66 69 -100 28 -12 -13 -30 -20 -55
-20 -21 0 -38 2 -38 5 0 20 35 67 58 79 36 20 144 20 182 1z m-1022 -438 l3
-78 26 21 c40 32 107 28 144 -9 l29 -29 0 -136 0 -136 -40 0 -40 0 0 103 c0
120 -11 151 -55 155 -54 4 -60 -6 -65 -135 l-5 -118 -42 -3 -43 -3 0 226 0
226 43 -3 42 -3 3 -78z m712 3 c0 -49 1 -50 30 -50 27 0 30 -3 30 -30 0 -27
-3 -30 -30 -30 l-31 0 3 -92 3 -93 28 -3 c24 -3 27 -8 27 -38 0 -32 -2 -34
-34 -34 -51 0 -96 20 -107 47 -5 13 -9 66 -9 118 0 89 -1 94 -22 97 -17 2 -24
11 -26 31 -3 23 0 27 22 27 24 0 26 3 26 50 l0 50 45 0 45 0 0 -50z m-1284
-56 c49 -24 67 -63 62 -139 -5 -74 -33 -123 -89 -154 -72 -41 -187 -20 -219
39 -19 36 -14 126 10 175 41 84 150 120 236 79z m1088 -14 c23 -24 24 -33 28
-162 l4 -138 -39 0 c-24 0 -40 5 -43 15 -5 13 -10 12 -37 -1 -21 -11 -47 -15
-85 -12 -66 6 -92 30 -92 87 0 66 33 91 142 106 56 7 74 25 58 54 -15 28 -74
29 -97 1 -19 -22 -93 -29 -93 -9 0 21 22 51 53 70 26 16 46 19 104 17 62 -3
77 -7 97 -28z m542 -12 c33 -37 60 -108 50 -134 -4 -11 -31 -14 -116 -14 -119
0 -128 -5 -91 -51 23 -28 81 -31 109 -6 10 10 35 17 56 17 l37 0 -16 -30 c-23
-44 -71 -70 -128 -70 -104 0 -162 59 -162 167 0 69 17 101 76 141 29 20 43 23
93 20 52 -4 63 -8 92 -40z m-2089 -63 c6 -49 12 -99 12 -110 1 -11 26 31 56
93 l54 112 46 0 c44 0 45 -1 34 -22 -41 -77 -203 -365 -211 -375 -14 -18 -86
-36 -114 -29 -42 11 -28 76 16 76 15 0 35 8 44 19 16 17 15 27 -9 159 -33 184
-34 174 18 170 l42 -3 12 -90z m689 73 c-18 -68 -38 -197 -33 -211 8 -21 55
-22 84 -2 24 17 34 44 58 158 l17 77 44 0 c43 0 44 -1 37 -27 -4 -16 -18 -86
-33 -158 l-26 -130 -39 0 c-32 0 -40 4 -39 18 2 16 -1 16 -31 -3 -44 -27 -118
-27 -145 0 -26 26 -26 69 2 198 l21 102 45 0 c41 0 44 -2 38 -22z"/>
<path d="M267 1798 c-6 -41 -2 -48 27 -48 18 0 25 7 30 31 9 47 8 49 -23 49
-25 0 -29 -4 -34 -32z"/>
<path d="M1235 1828 c-23 -13 -35 -28 -35 -45 0 -9 21 -13 70 -13 l71 0 -15
29 c-22 41 -53 51 -91 29z"/>
<path d="M2425 1713 c-41 -6 -57 -22 -53 -52 3 -22 9 -26 38 -29 39 -3 71 22
85 66 7 24 1 25 -70 15z"/>
<path d="M849 1335 c-29 -16 -46 -48 -55 -105 -5 -33 -2 -42 19 -64 33 -33 49
-33 87 2 54 48 60 145 11 171 -25 14 -30 13 -62 -4z"/>
<path d="M1950 1227 c-60 -11 -86 -37 -70 -66 9 -18 19 -22 53 -19 34 2 44 8
55 31 7 15 12 35 10 45 -3 16 -9 17 -48 9z"/>
<path d="M2445 1325 c-39 -38 -32 -45 44 -45 65 0 69 1 64 20 -6 24 -40 50
-66 50 -10 0 -29 -11 -42 -25z"/>
</g>
</svg>
