<?xml version="1.0" encoding="UTF-8"?>
<svg width="7px" height="14px" viewBox="0 0 7 14" version="1.1" xmlns="http://www.w3.org/2000/svg" xmlns:xlink="http://www.w3.org/1999/xlink">
    <!-- Generator: Sketch 42 (36781) - http://www.bohemiancoding.com/sketch -->
    <title>ion-social-facebook - Ionicons</title>
    <desc>Created with Sketch.</desc>
    <defs></defs>
    <g id="#LWYH" stroke="none" stroke-width="1" fill="none" fill-rule="evenodd">
        <g id="Log-in" transform="translate(-148.000000, -418.000000)" fill="#F4F4F4">
            <g id="btn-facebook" transform="translate(115.000000, 410.000000)">
                <g id="Group" transform="translate(33.000000, 8.000000)">
                    <path d="M4.66666667,4.66666667 L7,4.66666667 L6.70833333,7 L4.66666667,7 L4.66666667,14 L1.640625,14 L1.640625,7 L0,7 L0,4.66666667 L1.640625,4.66666667 L1.640625,3.09895833 C1.640625,2.0781199 1.89583078,1.30642622 2.40625,0.783854167 C2.91666922,0.261282109 3.76735516,0 4.95833333,0 L7,0 L7,2.33333333 L5.76041667,2.33333333 C5.2986088,2.33333333 5.00086872,2.40624927 4.8671875,2.55208333 C4.73350628,2.6979174 4.66666667,2.94097052 4.66666667,3.28125 L4.66666667,4.66666667 Z" id="ion-social-facebook---Ionicons"></path>
                </g>
            </g>
        </g>
    </g>
</svg>