<svg xmlns="http://www.w3.org/2000/svg" viewBox="0 0 290.74 110.52"><title>lwyh-black</title><g id="Layer_2" data-name="Layer 2"><g id="Layer_2-2" data-name="Layer 2"><path d="M0,33.68V27.8H6.2l1.17-8.09H2V13.84h6.2L10,.91h6.33L14.49,13.84h6.33L22.58.91h6.33L27.15,13.84H32v5.87H26.3L25.19,27.8H30v5.87H24.34L22.58,46.6H16.25L18,33.68H11.75L9.92,46.6H3.59L5.42,33.68ZM12.53,27.8h6.33L20,19.71H13.71Z"/><path d="M46.27,0V46.6H37V0Z"/><path d="M52.93,7.64V0H62.2V7.64Zm9.27,5.22V46.6H52.93V12.86Z"/><path d="M78.71,0V25L90.39,12.86h11L88.63,25.26,102.79,46.6H91.56L82.3,31.52,78.71,35V46.6H69.44V0Z"/><path d="M115.06,38.51a9.5,9.5,0,0,0,10.83.62,5.82,5.82,0,0,0,2.48-3h8.16q-2,6.07-6,8.68a17.67,17.67,0,0,1-9.79,2.61,19.26,19.26,0,0,1-7.18-1.27,14.91,14.91,0,0,1-5.42-3.62,16.29,16.29,0,0,1-3.43-5.61,20.52,20.52,0,0,1-1.21-7.18,19.67,19.67,0,0,1,1.24-7,16.31,16.31,0,0,1,9-9.4,17.47,17.47,0,0,1,7-1.37,16,16,0,0,1,7.51,1.66,15,15,0,0,1,5.25,4.47,18.39,18.39,0,0,1,3,6.4,23.85,23.85,0,0,1,.65,7.51H112.77Q113,36.48,115.06,38.51Zm10.47-17.75a6.51,6.51,0,0,0-5.06-1.83,8.07,8.07,0,0,0-3.69.75,7,7,0,0,0-2.35,1.86,6.81,6.81,0,0,0-1.24,2.35,10.58,10.58,0,0,0-.42,2.22h15.08A10.72,10.72,0,0,0,125.53,20.75Z"/><path d="M165.31,46.6l-1.17-23.69H164L153.56,46.6h-9.72l-3.72-33.74h9.46l1.31,23.76H151l10.38-23.76h9.4l1,23.56H172L182.8,12.86h9.79L175,46.6Z"/><path d="M208.64,0l-3.46,16.77h.13a9.78,9.78,0,0,1,1.5-1.57,12.29,12.29,0,0,1,2.35-1.57,15.61,15.61,0,0,1,3.2-1.21,15.9,15.9,0,0,1,4.11-.49q9.85,0,9.85,9.07a8.81,8.81,0,0,1-.13,1.34q-.13.82-.29,1.66t-.33,1.6q-.16.75-.23,1.21L221.18,46.6h-9.27L216,26.82q.13-.78.36-2.09a12.63,12.63,0,0,0,.23-2,2.93,2.93,0,0,0-1.4-2.48,5.2,5.2,0,0,0-3-1,8,8,0,0,0-3.69.82,9.1,9.1,0,0,0-2.74,2.12,11.72,11.72,0,0,0-1.89,3,18.42,18.42,0,0,0-1.14,3.46L198.92,46.6h-9.2L199.38,0Z"/><path d="M235.27,17.78a12.2,12.2,0,0,1,3.65-3.43,15.2,15.2,0,0,1,4.83-1.86,27.3,27.3,0,0,1,5.55-.55,36.6,36.6,0,0,1,4.76.33,16.15,16.15,0,0,1,4.57,1.27,8.91,8.91,0,0,1,3.43,2.68,7.06,7.06,0,0,1,1.27,4.6,26.92,26.92,0,0,1-.72,5.68l-3,13.57a11.36,11.36,0,0,0-.36,2.25q-.1,1.34-.1,2.32a7,7,0,0,0,.33,2h-9.27V43.27a11.25,11.25,0,0,1-4.63,3.17,16.29,16.29,0,0,1-5.68,1,14.55,14.55,0,0,1-4.8-.72,10.18,10.18,0,0,1-3.43-1.93,7.46,7.46,0,0,1-2-2.81,8.82,8.82,0,0,1-.65-3.36,9.88,9.88,0,0,1,3.36-7.83q3.36-2.94,9.5-3.65,3.26-.39,5.68-.59a23.38,23.38,0,0,0,4-.62,5,5,0,0,0,2.38-1.24,3.41,3.41,0,0,0,.78-2.45,3.4,3.4,0,0,0-.59-2.09,4.27,4.27,0,0,0-1.47-1.24,6.27,6.27,0,0,0-1.89-.62,12.17,12.17,0,0,0-1.93-.16,8.28,8.28,0,0,0-4.44,1.21A5.26,5.26,0,0,0,242,23.1h-8.68A12,12,0,0,1,235.27,17.78Zm13.84,13.9q-2,.23-4,.36a19.51,19.51,0,0,0-2.54.42,7.3,7.3,0,0,0-2.19.88,4.51,4.51,0,0,0-1.53,1.6,5.08,5.08,0,0,0-.59,2.58,3.12,3.12,0,0,0,1.53,2.84,6.63,6.63,0,0,0,3.56.95,8.54,8.54,0,0,0,3.62-.69,8,8,0,0,0,2.48-1.76,8.36,8.36,0,0,0,1.6-2.45,22.91,22.91,0,0,0,1-2.74l.91-3.26A9.4,9.4,0,0,1,249.11,31.69Z"/><path d="M290.74,12.86l-1.44,6.2h-6.59l-3.46,16.77c-.09.35-.15.66-.2.95a4.53,4.53,0,0,0-.07.62,2.75,2.75,0,0,0,.29,1.4,2.06,2.06,0,0,0,.75.75,2.27,2.27,0,0,0,1,.29c.37,0,.73,0,1.08,0a28,28,0,0,0,3.33-.2l-1.57,7.11q-1.44.13-2.87.23t-2.94.1a17.84,17.84,0,0,1-3.23-.29,8.68,8.68,0,0,1-2.87-1,5.55,5.55,0,0,1-2-2.06,6.34,6.34,0,0,1-.69-3.39,9.3,9.3,0,0,1,.13-1.47q.13-.82.33-1.73l3.79-18.08h-6.07l1.44-6.2h5.94l2.09-10.25h9.27l-2.09,10.25Z"/><path d="M38.12,107a9.6,9.6,0,0,1-2.74,2.19A10.93,10.93,0,0,1,32,110.22a30.44,30.44,0,0,1-4.54.29,23.11,23.11,0,0,1-2.42-.13q-1.24-.13-2.48-.2l1.57-7.7a9.2,9.2,0,0,1,1.86.2,9.14,9.14,0,0,0,1.86.2,5.88,5.88,0,0,0,2.61-.49,5.37,5.37,0,0,0,1.6-1.17,7.58,7.58,0,0,0,1-1.47,9.86,9.86,0,0,1,.88-1.37L27.94,65h9.53L40.4,89.11h.13L52.21,65H62L40.53,103.4A19.47,19.47,0,0,1,38.12,107Z"/><path d="M61.51,76.94a20.15,20.15,0,0,1,3.85-6.69,18.12,18.12,0,0,1,6.1-4.54,19,19,0,0,1,8.09-1.66,21.84,21.84,0,0,1,6.36.88,13.9,13.9,0,0,1,5,2.64A11.73,11.73,0,0,1,94.15,72a16.07,16.07,0,0,1,1.14,6.33A25.38,25.38,0,0,1,94,86.66a19.76,19.76,0,0,1-3.88,6.75,18,18,0,0,1-6.17,4.5,19.92,19.92,0,0,1-8.26,1.63q-7,0-11.26-3.62T60.18,85.06A24.38,24.38,0,0,1,61.51,76.94Zm8.35,11a7.13,7.13,0,0,0,1.27,2.42A6.25,6.25,0,0,0,73.23,92a6.33,6.33,0,0,0,2.87.62,7.21,7.21,0,0,0,4.47-1.4,11.45,11.45,0,0,0,3.07-3.52,17.3,17.3,0,0,0,1.79-4.6A20.16,20.16,0,0,0,86,78.47a8.76,8.76,0,0,0-1.53-5.42Q83,71,79.23,71a7.11,7.11,0,0,0-4.41,1.4,11.2,11.2,0,0,0-3,3.49A17.57,17.57,0,0,0,70,80.46a19.76,19.76,0,0,0-.59,4.6A9.63,9.63,0,0,0,69.87,87.94Z"/><path d="M119.63,98.71l1-4.7h-.13a14.48,14.48,0,0,1-11.81,5.55q-9.85,0-9.85-9a11.76,11.76,0,0,1,.1-1.34q.1-.82.26-1.66t.33-1.6q.16-.75.29-1.21L104,65h9.27l-4.11,19.77a6.65,6.65,0,0,0-.23.95l-.2,1.14a10.84,10.84,0,0,0-.13,1.14c0,.37,0,.66,0,.88a2.92,2.92,0,0,0,1.4,2.48,5.2,5.2,0,0,0,3,1,8,8,0,0,0,3.69-.82,9.09,9.09,0,0,0,2.74-2.12,11.75,11.75,0,0,0,1.89-3,18.47,18.47,0,0,0,1.14-3.46L126.29,65h9.27l-7,33.74Z"/><path d="M149.06,52.11V69.66h.2a10.74,10.74,0,0,1,4.5-4.27,12.16,12.16,0,0,1,5.35-1.34,15.75,15.75,0,0,1,6.1,1A9.06,9.06,0,0,1,169,67.87a10.87,10.87,0,0,1,1.93,4.37,27.25,27.25,0,0,1,.55,5.71V98.71h-9.27V79.65q0-4.17-1.31-6.23t-4.63-2.06q-3.79,0-5.48,2.25T149.06,81V98.71H139.8V52.11Z"/><path d="M177.19,75.34a10.76,10.76,0,0,1,1.63-5.42,11.11,11.11,0,0,1,3.65-3.46,15.94,15.94,0,0,1,5-1.86,28.43,28.43,0,0,1,5.58-.55,37.91,37.91,0,0,1,5.16.36,15.8,15.8,0,0,1,4.76,1.4,9.39,9.39,0,0,1,3.52,2.9,8.12,8.12,0,0,1,1.37,4.93V91.2a35.2,35.2,0,0,0,.26,4.37,7.88,7.88,0,0,0,.91,3.13h-9.4a13,13,0,0,1-.42-1.6,13.65,13.65,0,0,1-.23-1.66,12.07,12.07,0,0,1-5.22,3.2,21,21,0,0,1-6.13.91,16.57,16.57,0,0,1-4.5-.59,10.3,10.3,0,0,1-3.65-1.83A8.49,8.49,0,0,1,177,94a10.59,10.59,0,0,1-.88-4.5,9.83,9.83,0,0,1,1-4.73,8.45,8.45,0,0,1,2.61-3,11.71,11.71,0,0,1,3.65-1.66,39.46,39.46,0,0,1,4.14-.88q2.09-.33,4.11-.52a24.68,24.68,0,0,0,3.59-.59A6.24,6.24,0,0,0,197.75,77a2.51,2.51,0,0,0,.85-2.19,4.92,4.92,0,0,0-.49-2.38,3.6,3.6,0,0,0-1.31-1.37,5.15,5.15,0,0,0-1.89-.65,15.54,15.54,0,0,0-2.32-.16,7,7,0,0,0-4.31,1.17,5.24,5.24,0,0,0-1.83,3.92Zm21.41,6.85a4.14,4.14,0,0,1-1.47.82,14.83,14.83,0,0,1-1.89.49q-1,.2-2.12.33t-2.22.33a16.72,16.72,0,0,0-2.06.52,6.11,6.11,0,0,0-1.76.88,4.19,4.19,0,0,0-1.21,1.4,4.52,4.52,0,0,0-.46,2.15,4.35,4.35,0,0,0,.46,2.09,3.49,3.49,0,0,0,1.24,1.34,5.24,5.24,0,0,0,1.83.69,11.63,11.63,0,0,0,2.15.2,8.19,8.19,0,0,0,4.24-.91,6.11,6.11,0,0,0,2.22-2.19,7,7,0,0,0,.88-2.58,17.88,17.88,0,0,0,.16-2.09Z"/><path d="M232.67,65v6.2h-6.79V87.87q0,2.35.78,3.13t3.13.78q.78,0,1.5-.07a12.64,12.64,0,0,0,1.37-.2v7.18a22.31,22.31,0,0,1-2.61.26q-1.44.06-2.81.07a27,27,0,0,1-4.08-.29,9.61,9.61,0,0,1-3.39-1.14,6,6,0,0,1-2.32-2.42,8.62,8.62,0,0,1-.85-4.11V71.16H211V65h5.61V54.85h9.27V65Z"/><path d="M246.11,90.61a9.5,9.5,0,0,0,10.83.62,5.83,5.83,0,0,0,2.48-3h8.16q-2,6.07-6,8.68a17.67,17.67,0,0,1-9.79,2.61,19.26,19.26,0,0,1-7.18-1.27,14.91,14.91,0,0,1-5.42-3.62A16.29,16.29,0,0,1,235.76,89a20.52,20.52,0,0,1-1.21-7.18,19.67,19.67,0,0,1,1.24-7,16.31,16.31,0,0,1,9-9.4,17.47,17.47,0,0,1,7-1.37,16,16,0,0,1,7.51,1.66,15,15,0,0,1,5.25,4.47,18.39,18.39,0,0,1,3,6.4,23.85,23.85,0,0,1,.65,7.51H243.82Q244,88.59,246.11,90.61Zm10.47-17.75A6.51,6.51,0,0,0,251.53,71a8.08,8.08,0,0,0-3.69.75,7,7,0,0,0-2.35,1.86A6.8,6.8,0,0,0,244.25,76a10.58,10.58,0,0,0-.42,2.22H258.9A10.72,10.72,0,0,0,256.58,72.86Z"/></g></g></svg>